<?xml version="1.0" encoding="UTF-8"?>
<svg id="Layer_1" data-name="Layer 1" xmlns="http://www.w3.org/2000/svg" viewBox="0 0 432 439.48">
  <defs>
    <style>
      .cls-1 {
        fill: #d30000;
      }
    </style>
  </defs>
  <g>
    <path class="cls-1" d="m19.09,438.46h-5.93l-1.39-8.43h-4.38l-1.44,8.43H0l6.59-37.03,6.14.05,6.36,36.97Zm-8.26-14.36l-1.2-9-1.2,9h2.41Z"/>
    <path class="cls-1" d="m103.96,430.44c0,2.35-.85,4.36-2.55,6.03s-3.72,2.5-6.05,2.5h-1.49c-2.37,0-4.4-.84-6.08-2.5-1.68-1.67-2.52-3.68-2.52-6.03v-21.16c0-2.35.84-4.36,2.52-6.03,1.68-1.67,3.71-2.5,6.08-2.5h1.49c2.33,0,4.35.84,6.05,2.5s2.55,3.68,2.55,6.03v21.16Zm-5.73-1.53v-18.27c0-1.51-.15-2.59-.46-3.23-.46-1.02-1.36-1.53-2.69-1.53-2.71,0-4.07,1.59-4.07,4.77v18.27c0,3.18,1.24,4.76,3.73,4.76,2.33,0,3.5-1.59,3.5-4.76Z"/>
    <path class="cls-1" d="m188.99,430.47c0,2.36-.66,4.28-1.98,5.76s-3.16,2.23-5.53,2.23h-11.24v-37.14c6.69-.04,10.07-.06,10.15-.06,2.37,0,4.39.84,6.08,2.51,1.68,1.67,2.52,3.69,2.52,6.04v20.65Zm-5.73-1.54v-17.81c0-1.86-.23-3.1-.69-3.71-.62-.76-1.87-1.14-3.76-1.14h-2.83v27.4c2.43.04,3.68.06,3.76.06,1.43,0,2.41-.47,2.95-1.43.39-.72.58-1.84.58-3.37Z"/>
    <path class="cls-1" d="m261.75,438.46h-5.96v-37.03l5.96.05v36.97Z"/>
    <path class="cls-1" d="m346.96,401.48l-6.41,18.87,6.29,18.16-6.13-.06-3.15-9.28-3.21,9.28-6.13.06,6.32-18.25-6.44-18.78h6.05l3.41,9.87,3.41-9.87h5.99Z"/>
    <path class="cls-1" d="m431.13,411.74h-5.73c0-1.77-.17-3.08-.52-3.95-.57-1.28-1.64-1.92-3.21-1.92-1.41,0-2.39.49-2.92,1.48-.38.72-.57,1.86-.57,3.41,0,2.08.15,3.6.46,4.55.54,1.67,1.63,2.5,3.28,2.5,2.38,0,4.51.83,6.39,2.47,1.88,1.65,2.82,3.65,2.82,6v4.66c0,2.35-.84,4.36-2.53,6.03s-3.72,2.5-6.1,2.5h-1.5c-2.38,0-4.41-.84-6.1-2.51s-2.53-3.68-2.53-6.04v-2.45h5.73c-.04,3.91,1.2,5.87,3.73,5.87,1.45,0,2.45-.53,2.98-1.59.34-.68.52-1.86.52-3.53,0-4.17-1.22-6.26-3.66-6.26s-4.6-.82-6.48-2.47c-1.88-1.65-2.82-3.65-2.82-6v-5.23c0-2.35.84-4.36,2.53-6.03,1.69-1.67,3.72-2.5,6.1-2.5h1.5c2.38,0,4.41.84,6.1,2.51s2.53,3.69,2.53,6.04v2.45Z"/>
  </g>
  <path class="cls-1" d="m216.41,0l-63.45,109.27L.81,371.32h303.25l-125.03-216.98,37.28-63.93,139.49,240.23h-32.61l22.92,40.68h85.89L216.41,0ZM78.12,327.41l64.02-109.79h.08l12.34-20.93,70.05,130.19-146.5.53Z"/>
</svg>